# AST/ASF file generated using VICON BodyLanguage
# -----------------------------------------------
:version 1.10
:name VICON
:units
  mass 1.0
  length 0.45
  angle deg
:documentation
   .ast/.asf automatically generated from VICON data using
   VICON BodyBuilder and BodyLanguage model FoxedUp or BRILLIANT.MOD
:root
   order TX TY TZ RX RY RZ
   axis XYZ
   position 0 0 0  
   orientation 0 0 0 
:bonedata
  begin
     id 1 
     name lhipjoint
     direction 0.693937 -0.600361 0.397515 
     length 2.37164 
     axis 0 0 0  XYZ
  end
  begin
     id 2 
     name lfemur
     direction 0.34202 -0.939693 0  
     length 6.18497  
     axis 0 0 20  XYZ
    dof rx ry rz
    limits (-160.0 20.0)
           (-70.0 70.0)
           (-60.0 70.0)
  end
  begin
     id 3 
     name ltibia
     direction 0.34202 -0.939693 0   
     length 6.91601   
     axis 0 0 20   XYZ
    dof rx
    limits (-10.0 170.0)
  end
  begin
     id 4 
     name lfoot
     direction 0.0978718 -0.2689 0.958182   
     length 1.81453   
     axis -90 7.62852e-016 20   XYZ
    dof rx rz
    limits (-45.0 90.0)
           (-70.0 20.0)
  end
  begin
     id 5 
     name ltoes
     direction 1.53569e-011 -4.21951e-011 1   
     length 0.912052   
     axis -90 7.62852e-016 20   XYZ
    dof rx
    limits (-90.0 20.0)
  end
  begin
     id 6 
     name rhipjoint
     direction -0.643996 -0.637876 0.422354   
     length 2.23216  
     axis 0 0 0  XYZ 
  end
  begin
     id 7 
     name rfemur
     direction -0.34202 -0.939693 0   
     length 6.15404   
     axis 0 0 -20   XYZ
    dof rx ry rz
    limits (-160.0 20.0)
           (-70.0 70.0)
           (-70.0 60.0)
  end
  begin
     id 8 
     name rtibia
     direction -0.34202 -0.939693 0   
     length 6.86744   
     axis 0 0 -20   XYZ
    dof rx
    limits (-10.0 170.0)
 end
 begin
     id 9 
     name rfoot
     direction -0.118701 -0.326127 0.937844   
     length 1.9243  
     axis -90 -7.62852e-016 -20   XYZ
    dof rx rz
    limits (-45.0 90.0)
           (-20.0 70.0)
  end
  begin
     id 10 
     name rtoes
     direction -1.5356e-011 -4.2181e-011 1   
     length 0.958865   
     axis -90 -7.62852e-016 -20   XYZ
    dof rx
    limits (-90.0 20.0)
  end
  begin
     id 11 
     name lowerback
     direction 0.0310826 0.968686 -0.246334   
     length 2.00021   
     axis 0 0 0   XYZ
    dof rx ry rz
    limits (-20.0 45.0)
           (-30.0 30.0)
           (-30.0 30.0)
  end
  begin
     id 12 
     name upperback
     direction -0.0152834 0.999474 -0.0286152   
     length 2.03728   
     axis 0 0 0   XYZ
    dof rx ry rz
    limits (-20.0 45.0)
           (-30.0 30.0)
           (-30.0 30.0)
  end
  begin
     id 13 
     name thorax
     direction -0.0323701 0.996236 0.0804149   
     length 2.16   
     axis 0 0 0   XYZ
    dof rx ry rz
    limits (-20.0 45.0)
           (-30.0 30.0)
           (-30.0 30.0)
  end
  begin
     id 14 
     name lowerneck
     direction 0.0307935 0.982251 0.185027   
     length 1.43558   
     axis 0 0 0   XYZ
    dof rx ry rz
    limits (-20.0 45.0)
           (-30.0 30.0)
           (-30.0 30.0)
  end
  begin
     id 15 
     name upperneck
     direction -0.0927153 0.994775 0.0427454   
     length 1.44603   
     axis 0 0 0   XYZ
    dof rx ry rz
    limits (-20.0 45.0)
           (-30.0 30.0)
           (-30.0 30.0)
  end
  begin
     id 16
     name head
     direction -0.0341265 0.999406 -0.00472033  
     length 1.45931  
     axis 0 0 0   XYZ
    dof rx ry rz
    limits (-20.0 45.0)
           (-30.0 30.0)
           (-30.0 30.0)
  end
  begin
     id 17 
     name lclavicle
     direction 0.820755 0.555306 -0.134151  
     length 2.66075  
     axis 0 0 0   XYZ
    dof ry rz
    limits (-20.0 10.0)
           (0.0 20.0)
  end
  begin
     id 18 
     name lhumerus
     direction 1 -4.48971e-011 5.24853e-027   
     length 5.0546   
     axis -180 -30 -90   XYZ
    dof rx ry rz
    limits (-60.0 90.0)
           (-90.0 90.0)
           (-90.0 90.0)
  end
  begin
     id 19
     name lradius
     direction 1 -4.48971e-011 2.76575e-028   
     length 3.39013   
     axis -180 -30 -90   XYZ
    dof rx
    limits (-10.0 170.0)
  end
  begin
     id 20
     name lwrist
     direction 1 -4.48939e-011 -2.27826e-027   
     length 1.69507   
     axis 2.17013e-015 90 90   XYZ
    dof ry
    limits (-180.0 0.0)
 end
  begin
     id 21 
     name lhand
     direction 1 -4.49009e-011 -4.55652e-027   
     length 0.572425   
     axis 2.90745e-015 90 90   XYZ
    dof rx rz
    limits (-90.0 90.0)
           (-45.0 45.0)
  end
  begin
     id 22 
     name lfingers
     direction 1 -4.48955e-011 -9.11303e-027   
     length 0.461504   
     axis 5.81489e-015 90 90   XYZ
    dof rx
    limits (0.0 90.0)
  end
  begin
     id 23
     name lthumb
     direction 0.707107 -6.34929e-011 0.707107   
     length 0.66263   
     axis -90 45 2.85299e-015   XYZ
    dof rx rz
    limits (-45.0 45.0)
           (-45.0 45.0)
  end
  begin
     id 24 
     name rclavicle
     direction -0.754477 0.632921 -0.173712   
     length 2.73081  
     axis 0 0 0   XYZ 
    dof ry rz
    limits (-10.0 20.0)
           (-20.0 0.0)
  end
  begin
     id 25 
     name rhumerus
     direction -1 -4.48969e-011 5.1496e-027  
     length 5.0701   
     axis -180 30 90   XYZ
    dof rx ry rz
    limits (-90.0 60.0)
           (-90.0 90.0)
           (-90.0 90.0)
  end
  begin
     id 26 
     name rradius
     direction -1 -4.48967e-011 -7.15624e-028   
     length 3.14957   
     axis -180 30 90   XYZ
    dof rx
    limits (-10.0 170.0)
  end
  begin
     id 27 
     name rwrist
     direction -1 -4.48938e-011 -2.27826e-027   
     length 1.57479   
     axis 2.17013e-015 -90 -90   XYZ
    dof ry
    limits (-180.0 0.0)
  end
  begin
     id 28
     name rhand
     direction -1 -4.49008e-011 -4.55652e-027   
     length 0.718191   
     axis 2.90745e-015 -90 -90   XYZ
    dof rx rz
    limits (-90.0 90.0)
           (-45.0 45.0)
  end
  begin
     id 29
     name rfingers
     direction -1 -4.48953e-011 -9.11303e-027   
     length 0.579024   
     axis 5.81489e-015 -90 -90   XYZ
    dof rx
    limits (0.0 90.0)
  end
  begin
     id 30
     name rthumb
     direction -0.707107 -6.34937e-011 0.707107   
     length 0.831366   
     axis -90 -45 -2.85299e-015   XYZ
    dof rx rz
    limits (-45.0 45.0)
           (-45.0 45.0)
  end
:hierarchy
  begin
    root lhipjoint rhipjoint lowerback
    lhipjoint lfemur
    lfemur ltibia
    ltibia lfoot
    lfoot ltoes
    rhipjoint rfemur
    rfemur rtibia
    rtibia rfoot
    rfoot rtoes
    lowerback upperback
    upperback thorax
    thorax lowerneck lclavicle rclavicle
    lowerneck upperneck
    upperneck head
    lclavicle lhumerus
    lhumerus lradius
    lradius lwrist
    lwrist lhand lthumb
    lhand lfingers
    rclavicle rhumerus
    rhumerus rradius
    rradius rwrist
    rwrist rhand rthumb
    rhand rfingers
  end

#!OML:ASF H:\Male1\Project 1\Capture day 1\Session 1\Male1.ASF
:FULLY-SPECIFIED
:DEGREES
52
root 9.25098 15.5258 -3.33377 -9.60116 -66.629 5.54695
lowerback 13.0105 0.920198 5.83548
upperback 7.82834 1.5434 0.160163
thorax 1.12675 0.852424 -3.29502
lowerneck -7.8266 4.43539 9.64804
upperneck 23.5118 5.85754 -7.11943
head 9.14558 2.76276 -3.4898
rclavicle 1.74931e-014 -3.10104e-014
rhumerus -31.4047 11.6912 -85.7617
rradius 64.7269
rwrist -8.68422
rhand -14.4423 -1.3461
rfingers 7.12502
rthumb 11.7026 -30.9992
lclavicle 1.74931e-014 -3.10104e-014
lhumerus -33.1803 1.76494 84.5448
lradius 36.8665
lwrist 2.40161
lhand -19.1825 9.83498
lfingers 7.12502
lthumb 7.12895 39.6949
rfemur 5.89162 7.80575 28.52
rtibia 13.2734
rfoot -29.763 -34.8533
rtoes 0.881665
lfemur -55.8528 7.88055 -22.2372
ltibia 101.707
lfoot -18.3035 11.5683
ltoes -14.7533
53
root 9.22887 15.5434 -3.35071 -9.38689 -66.6295 5.10274
lowerback 13.3961 1.0125 6.10231
upperback 7.94835 1.70437 0.161256
thorax 1.07768 0.939124 -3.46984
lowerneck -7.94026 4.40167 9.58783
upperneck 23.3306 5.77235 -6.9463
head 9.08922 2.73561 -3.42335
rclavicle 2.20651e-014 -1.98785e-014
rhumerus -30.8679 12.1951 -85.4283
rradius 65.7562
rwrist -8.66338
rhand -14.5591 -1.33138
rfingers 7.12502
rthumb 11.5899 -30.9909
lclavicle 2.20651e-014 -1.98785e-014
lhumerus -33.1351 1.52537 84.4546
lradius 36.8058
lwrist 2.49778
lhand -19.2951 9.75406
lfingers 7.12502
lthumb 7.02029 39.6176
rfemur 7.43066 7.55995 28.7826
rtibia 10.8298
rfoot -28.5532 -35.0545
rtoes 0.835707
lfemur -59.3191 8.87993 -22.3828
ltibia 104.512
lfoot -18.5452 10.904
ltoes -13.7852
54
root 9.20429 15.5574 -3.36499 -9.22415 -66.6627 4.7067
lowerback 13.7524 1.10593 6.34458
upperback 8.07411 1.86326 0.157887
thorax 1.05167 1.02491 -3.63561
lowerneck -8.0236 4.3831 9.52148
upperneck 23.0791 5.71485 -6.78905
head 9.00596 2.72008 -3.35798
rclavicle 1.2921e-014 -7.15625e-015
rhumerus -30.2228 12.7188 -85.0504
rradius 66.7779
rwrist -8.5052
rhand -14.7259 -1.33945
rfingers 7.12502
rthumb 11.4291 -31.0079
lclavicle 1.2921e-014 -7.15625e-015
lhumerus -33.1211 1.32933 84.3819
lradius 36.7939
lwrist 2.63446
lhand -19.3886 9.69211
lfingers 7.12502
lthumb 6.92999 39.5587
rfemur 9.16904 7.18489 29.0044
rtibia 8.04904
rfoot -27.1319 -35.1445
rtoes 0.840593
lfemur -62.7099 9.75013 -22.6014
ltibia 106.858
lfoot -18.6603 10.303
ltoes -13.2017
55
root 9.17667 15.5685 -3.37645 -9.19808 -66.7219 4.44817
lowerback 14.0722 1.19926 6.51422
upperback 8.20577 2.01207 0.151081
thorax 1.0487 1.10419 -3.76281
lowerneck -8.04301 4.3776 9.4548
upperneck 22.7213 5.69095 -6.68226
head 8.87876 2.71671 -3.3062
rclavicle -1.98785e-014 -1.19271e-014
rhumerus -29.4554 13.2874 -84.616
rradius 67.7899
rwrist -8.23886
rhand -14.9313 -1.36822
rfingers 7.12502
rthumb 11.231 -31.0476
lclavicle -1.98785e-014 -1.19271e-014
lhumerus -33.1332 1.2187 84.332
lradius 36.8051
lwrist 2.77267
lhand -19.4468 9.65299
lfingers 7.12502
lthumb 6.87385 39.5214
rfemur 11.4212 6.83848 29.1628
rtibia 4.35368
rfoot -25.2231 -35.3496
rtoes 0.878903
lfemur -65.9382 10.4583 -22.9141
ltibia 108.684
lfoot -18.6757 9.81972
ltoes -13.2706
56
root 9.14559 15.5771 -3.38493 -9.32846 -66.8077 4.34118
lowerback 14.3549 1.29522 6.60669
upperback 8.34095 2.15328 0.139612
thorax 1.06578 1.17798 -3.85017
lowerneck -7.98298 4.3789 9.41277
upperneck 22.2494 5.69334 -6.64879
head 8.70339 2.72229 -3.28122
rclavicle -3.73715e-014 -3.26007e-014
rhumerus -28.5702 13.895 -84.1275
rradius 68.798
rwrist -7.91741
rhand -15.1639 -1.39328
rfingers 7.12502
rthumb 11.0066 -31.0847
lclavicle -3.73715e-014 -3.26007e-014
lhumerus -33.1621 1.20133 84.297
lradius 36.8072
lwrist 2.8751
lhand -19.4517 9.62606
lfingers 7.12502
lthumb 6.86909 39.4946
rfemur 14.0609 6.5252 29.2499
rtibia -5.24792e-014
rfoot -22.9353 -35.6249
rtoes 0.888681
lfemur -68.9174 10.9967 -23.2945
ltibia 109.962
lfoot -18.64 9.4549
ltoes -13.9379
57
root 9.11093 15.5832 -3.39014 -9.59372 -66.9154 4.355
lowerback 14.6076 1.39384 6.64994
upperback 8.4727 2.29071 0.119839
thorax 1.09317 1.24888 -3.91787
lowerneck -7.84694 4.3782 9.41416
upperneck 21.6885 5.70551 -6.68769
head 8.48908 2.73067 -3.28792
rclavicle 3.91606e-014 -7.95139e-016
rhumerus -27.5877 14.5125 -83.5973
rradius 69.8151
rwrist -7.59699
rhand -15.4373 -1.40247
rfingers 7.12502
rthumb 10.743 -31.1078
lclavicle 3.91606e-014 -7.95139e-016
lhumerus -33.2008 1.25116 84.2693
lradius 36.7677
lwrist 2.92458
lhand -19.4143 9.61863
lfingers 7.12502
lthumb 6.90524 39.486
rfemur 14.4568 6.23786 29.3032
rtibia -7.95139e-015
rfoot -23.0722 -35.3494
rtoes 0.832883
lfemur -71.5737 11.3665 -23.695
ltibia 110.699
lfoot -18.5994 9.20074
ltoes -15.0006
